<?xml version="1.0" encoding="UTF-8" standalone="no"?>
<!DOCTYPE svg PUBLIC "-//W3C//DTD SVG 1.1//EN"
 "http://www.w3.org/Graphics/SVG/1.1/DTD/svg11.dtd">
<!-- Generated by graphviz version 2.38.0 (20140413.2041)
 -->
<!-- Title: G Pages: 1 -->
<svg width="861pt" height="210pt"
 viewBox="0.00 0.00 861.00 210.00" xmlns="http://www.w3.org/2000/svg" xmlns:xlink="http://www.w3.org/1999/xlink">
<g id="graph0" class="graph" transform="scale(1 1) rotate(0) translate(4 206)">
<title>G</title>
<polygon fill="white" stroke="none" points="-4,4 -4,-206 857,-206 857,4 -4,4"/>
<!-- Tech Writer -->
<g id="node1" class="node"><title>Tech Writer</title>
<polygon fill="none" stroke="black" points="0,-127.5 0,-163.5 84,-163.5 84,-127.5 0,-127.5"/>
<text text-anchor="middle" x="42" y="-141.8" font-family="Times New Roman,serif" font-size="14.00">Tech Writer</text>
</g>
<!-- ASCIIdoc repo (Git) -->
<g id="node2" class="node"><title>ASCIIdoc repo (Git)</title>
<polygon fill="none" stroke="black" points="296,-95.5 296,-131.5 430,-131.5 430,-95.5 296,-95.5"/>
<text text-anchor="middle" x="363" y="-109.8" font-family="Times New Roman,serif" font-size="14.00">ASCIIdoc repo (Git)</text>
</g>
<!-- Tech Writer&#45;&gt;ASCIIdoc repo (Git) -->
<g id="edge1" class="edge"><title>Tech Writer&#45;&gt;ASCIIdoc repo (Git)</title>
<path fill="none" stroke="black" d="M84.2271,-142.012C127.901,-138.243 198.856,-131.913 260,-125.5 271.615,-124.282 283.964,-122.901 295.911,-121.521"/>
</g>
<!-- Web Application (Antora) -->
<g id="node3" class="node"><title>Web Application (Antora)</title>
<polygon fill="none" stroke="black" points="466,-165.5 466,-201.5 629,-201.5 629,-165.5 466,-165.5"/>
<text text-anchor="middle" x="547.5" y="-179.8" font-family="Times New Roman,serif" font-size="14.00">Web Application (Antora)</text>
</g>
<!-- Tech Writer&#45;&gt;Web Application (Antora) -->
<g id="edge2" class="edge"><title>Tech Writer&#45;&gt;Web Application (Antora)</title>
<path fill="none" stroke="black" d="M84.2035,-148.61C167.463,-154.893 357.05,-169.202 465.811,-177.41"/>
</g>
<!-- Editor (ASCIIdocFX) -->
<g id="node4" class="node"><title>Editor (ASCIIdocFX)</title>
<polygon fill="none" stroke="black" points="120,-80.5 120,-116.5 260,-116.5 260,-80.5 120,-80.5"/>
<text text-anchor="middle" x="190" y="-94.8" font-family="Times New Roman,serif" font-size="14.00">Editor (ASCIIdocFX)</text>
</g>
<!-- Tech Writer&#45;&gt;Editor (ASCIIdocFX) -->
<g id="edge3" class="edge"><title>Tech Writer&#45;&gt;Editor (ASCIIdocFX)</title>
<path fill="none" stroke="black" d="M84.0577,-132.283C99.2393,-127.396 116.717,-121.769 132.999,-116.528"/>
</g>
<!-- ASCIIdoc repo (Git)&#45;&gt;Web Application (Antora) -->
<g id="edge5" class="edge"><title>ASCIIdoc repo (Git)&#45;&gt;Web Application (Antora)</title>
<path fill="none" stroke="black" d="M404.908,-131.577C423.432,-139.546 445.686,-148.824 466,-156.5 473.998,-159.522 482.504,-162.561 490.877,-165.453"/>
</g>
<!-- HTML5 generator -->
<g id="node5" class="node"><title>HTML5 generator</title>
<polygon fill="none" stroke="black" points="488.5,-110.5 488.5,-146.5 606.5,-146.5 606.5,-110.5 488.5,-110.5"/>
<text text-anchor="middle" x="547.5" y="-124.8" font-family="Times New Roman,serif" font-size="14.00">HTML5 generator</text>
</g>
<!-- ASCIIdoc repo (Git)&#45;&gt;HTML5 generator -->
<g id="edge6" class="edge"><title>ASCIIdoc repo (Git)&#45;&gt;HTML5 generator</title>
<path fill="none" stroke="black" d="M430.145,-118.937C445.793,-120.223 462.509,-121.597 478.248,-122.89"/>
<polygon fill="black" stroke="black" points="478.176,-126.396 488.429,-123.727 478.749,-119.42 478.176,-126.396"/>
</g>
<!-- DocBook -->
<g id="node6" class="node"><title>DocBook</title>
<polygon fill="none" stroke="black" points="512,-55.5 512,-91.5 583,-91.5 583,-55.5 512,-55.5"/>
<text text-anchor="middle" x="547.5" y="-69.8" font-family="Times New Roman,serif" font-size="14.00">DocBook</text>
</g>
<!-- ASCIIdoc repo (Git)&#45;&gt;DocBook -->
<g id="edge7" class="edge"><title>ASCIIdoc repo (Git)&#45;&gt;DocBook</title>
<path fill="none" stroke="black" d="M430.145,-99.0025C454.01,-93.7719 480.359,-87.9967 501.939,-83.2668"/>
<polygon fill="black" stroke="black" points="502.786,-86.6644 511.805,-81.1045 501.287,-79.8267 502.786,-86.6644"/>
</g>
<!-- PDF -->
<g id="node7" class="node"><title>PDF</title>
<polygon fill="none" stroke="black" points="520.5,-0.5 520.5,-36.5 574.5,-36.5 574.5,-0.5 520.5,-0.5"/>
<text text-anchor="middle" x="547.5" y="-14.8" font-family="Times New Roman,serif" font-size="14.00">PDF</text>
</g>
<!-- ASCIIdoc repo (Git)&#45;&gt;PDF -->
<g id="edge8" class="edge"><title>ASCIIdoc repo (Git)&#45;&gt;PDF</title>
<path fill="none" stroke="black" d="M387.237,-95.4072C407.243,-80.4833 437.335,-59.5526 466,-45.5 480.059,-38.6077 496.31,-32.7867 510.514,-28.3345"/>
<polygon fill="black" stroke="black" points="511.872,-31.5803 520.433,-25.3388 509.849,-24.8792 511.872,-31.5803"/>
</g>
<!-- Editor (ASCIIdocFX)&#45;&gt;ASCIIdoc repo (Git) -->
<g id="edge4" class="edge"><title>Editor (ASCIIdocFX)&#45;&gt;ASCIIdoc repo (Git)</title>
<path fill="none" stroke="black" d="M260.059,-104.558C271.831,-105.59 284.035,-106.661 295.733,-107.687"/>
</g>
<!-- XSL&#45;FO -->
<g id="node8" class="node"><title>XSL&#45;FO</title>
<polygon fill="none" stroke="black" points="665,-55.5 665,-91.5 731,-91.5 731,-55.5 665,-55.5"/>
<text text-anchor="middle" x="698" y="-69.8" font-family="Times New Roman,serif" font-size="14.00">XSL&#45;FO</text>
</g>
<!-- DocBook&#45;&gt;XSL&#45;FO -->
<g id="edge9" class="edge"><title>DocBook&#45;&gt;XSL&#45;FO</title>
<path fill="none" stroke="black" d="M583.317,-73.5C604.727,-73.5 632.3,-73.5 654.928,-73.5"/>
<polygon fill="black" stroke="black" points="654.938,-77.0001 664.938,-73.5 654.938,-70.0001 654.938,-77.0001"/>
</g>
<!-- Formal PDF -->
<g id="node9" class="node"><title>Formal PDF</title>
<polygon fill="none" stroke="black" points="767,-55.5 767,-91.5 853,-91.5 853,-55.5 767,-55.5"/>
<text text-anchor="middle" x="810" y="-69.8" font-family="Times New Roman,serif" font-size="14.00">Formal PDF</text>
</g>
<!-- XSL&#45;FO&#45;&gt;Formal PDF -->
<g id="edge10" class="edge"><title>XSL&#45;FO&#45;&gt;Formal PDF</title>
<path fill="none" stroke="black" d="M731.112,-73.5C739.134,-73.5 747.947,-73.5 756.669,-73.5"/>
<polygon fill="black" stroke="black" points="756.815,-77.0001 766.815,-73.5 756.815,-70.0001 756.815,-77.0001"/>
</g>
</g>
</svg>
