<?xml version="1.0" encoding="UTF-8" standalone="no"?>
<!DOCTYPE svg PUBLIC "-//W3C//DTD SVG 1.1//EN"
 "http://www.w3.org/Graphics/SVG/1.1/DTD/svg11.dtd">
<!-- Generated by graphviz version 2.38.0 (20140413.2041)
 -->
<!-- Title: g Pages: 1 -->
<svg width="332pt" height="69pt"
 viewBox="0.00 0.00 332.00 69.00" xmlns="http://www.w3.org/2000/svg" xmlns:xlink="http://www.w3.org/1999/xlink">
<g id="graph0" class="graph" transform="scale(1 1) rotate(0) translate(4 65)">
<title>g</title>
<polygon fill="white" stroke="none" points="-4,4 -4,-65 328,-65 328,4 -4,4"/>
<!-- a -->
<g id="node1" class="node"><title>a</title>
<polygon fill="none" stroke="black" points="0,-0.5 0,-36.5 54,-36.5 54,-0.5 0,-0.5"/>
<text text-anchor="middle" x="27" y="-14.8" font-family="Times New Roman,serif" font-size="14.00">a</text>
</g>
<!-- b -->
<g id="node2" class="node"><title>b</title>
<polygon fill="none" stroke="black" points="90,-24.5 90,-60.5 144,-60.5 144,-24.5 90,-24.5"/>
<text text-anchor="middle" x="117" y="-38.8" font-family="Times New Roman,serif" font-size="14.00">b</text>
</g>
<!-- a&#45;&gt;b -->
<g id="edge1" class="edge"><title>a&#45;&gt;b</title>
<path fill="none" stroke="black" d="M54.4029,-25.7008C62.481,-27.9039 71.5067,-30.3655 80.1046,-32.7103"/>
<polygon fill="black" stroke="black" points="79.3504,-36.1324 89.919,-35.387 81.1923,-29.3791 79.3504,-36.1324"/>
</g>
<!-- c -->
<g id="node3" class="node"><title>c</title>
<polygon fill="none" stroke="black" points="180,-24.5 180,-60.5 234,-60.5 234,-24.5 180,-24.5"/>
<text text-anchor="middle" x="207" y="-38.8" font-family="Times New Roman,serif" font-size="14.00">c</text>
</g>
<!-- b&#45;&gt;c -->
<g id="edge2" class="edge"><title>b&#45;&gt;c</title>
<path fill="none" stroke="black" d="M144.403,-42.5C152.393,-42.5 161.311,-42.5 169.824,-42.5"/>
<polygon fill="black" stroke="black" points="169.919,-46.0001 179.919,-42.5 169.919,-39.0001 169.919,-46.0001"/>
</g>
<!-- d -->
<g id="node4" class="node"><title>d</title>
<polygon fill="none" stroke="black" points="270,-0.5 270,-36.5 324,-36.5 324,-0.5 270,-0.5"/>
<text text-anchor="middle" x="297" y="-14.8" font-family="Times New Roman,serif" font-size="14.00">d</text>
</g>
<!-- c&#45;&gt;d -->
<g id="edge3" class="edge"><title>c&#45;&gt;d</title>
<path fill="none" stroke="black" d="M234.403,-35.2992C242.481,-33.0961 251.507,-30.6345 260.105,-28.2897"/>
<polygon fill="black" stroke="black" points="261.192,-31.6209 269.919,-25.613 259.35,-24.8676 261.192,-31.6209"/>
</g>
<!-- d&#45;&gt;a -->
<g id="edge4" class="edge"><title>d&#45;&gt;a</title>
<path fill="none" stroke="black" d="M269.772,-16.4325C258.735,-15.66 245.751,-14.8787 234,-14.5 170.033,-12.4387 153.967,-12.4387 90,-14.5 81.6458,-14.7692 72.6683,-15.242 64.2103,-15.7703"/>
<polygon fill="black" stroke="black" points="63.9742,-12.2782 54.2278,-16.4325 64.4376,-19.2629 63.9742,-12.2782"/>
</g>
</g>
</svg>
