<?xml version="1.0" encoding="UTF-8" standalone="no"?>
<!-- Created with Inkscape (http://www.inkscape.org/) -->

<svg
   xmlns:dc="http://purl.org/dc/elements/1.1/"
   xmlns:cc="http://creativecommons.org/ns#"
   xmlns:rdf="http://www.w3.org/1999/02/22-rdf-syntax-ns#"
   xmlns:svg="http://www.w3.org/2000/svg"
   xmlns="http://www.w3.org/2000/svg"
   xmlns:sodipodi="http://sodipodi.sourceforge.net/DTD/sodipodi-0.dtd"
   xmlns:inkscape="http://www.inkscape.org/namespaces/inkscape"
   version="1.1"
   id="svg3714"
   width="1306.6667"
   height="1272"
   viewBox="0 0 1306.6667 1272"
   sodipodi:docname="SE2.svg"
   inkscape:version="0.92.3 (2405546, 2018-03-11)">
  <metadata
     id="metadata3720">
    <rdf:RDF>
      <cc:Work
         rdf:about="">
        <dc:format>image/svg+xml</dc:format>
        <dc:type
           rdf:resource="http://purl.org/dc/dcmitype/StillImage" />
        <dc:title></dc:title>
      </cc:Work>
    </rdf:RDF>
  </metadata>
  <defs
     id="defs3718" />
  <sodipodi:namedview
     pagecolor="#ffffff"
     bordercolor="#666666"
     borderopacity="1"
     objecttolerance="10"
     gridtolerance="10"
     guidetolerance="10"
     inkscape:pageopacity="0"
     inkscape:pageshadow="2"
     inkscape:window-width="1920"
     inkscape:window-height="1001"
     id="namedview3716"
     showgrid="false"
     inkscape:zoom="0.18553459"
     inkscape:cx="-2787.7325"
     inkscape:cy="1283.3338"
     inkscape:window-x="-9"
     inkscape:window-y="-9"
     inkscape:window-maximized="1"
     inkscape:current-layer="svg3714" />
  <path
     style="fill:#000000;stroke-width:1.33333337"
     d="M 13.531343,1270.7297 -2.8808173,1270 20.948373,1234.6667 C 34.054433,1215.2333 83.791663,1142.0333 131.47555,1072 291.02406,837.67112 378.61018,707.89913 378.61018,705.833 c 0,-1.01347 -44.48968,-0.009 -160,3.61025 -45.83334,1.43632 -110.03334,2.98832 -142.666677,3.44891 l -59.33333,0.83743 -5.78238,-6.29387 c -6.8693303,-7.47697 -11.59518029,-17.55888 -13.6210903,-29.05864 -2.04704,-11.61969 -3.34773,-244.44611 -1.50879,-270.07793 1.20082,-16.73739 1.78817,-19.75526 4.86759001,-25.00988 1.92609999,-3.28664 4.98078999,-6.94466 6.78820999,-8.12891 5.5312003,-3.62419 21.9394503,-4.93511 45.8300603,-3.66152 l 21.90693,1.16783 10.8839,18.66666 c 5.98615,10.26667 33.896537,58.19655 62.023077,106.51083 28.12655,48.31429 52.07067,88.92441 53.20916,90.24472 2.29876,2.66583 -8.77854,3.33819 100.73667,-6.11443 45.16991,-3.89877 81.14015,-7.42926 81.79318,-8.02805 C 384.84286,572.93212 302.4172,450.77523 121.06929,184.66667 92.083633,142.13333 52.332573,83.633329 32.733593,54.666669 L -2.9009073,1.9999986 14.854633,1.1575086 c 9.76555,-0.46336996 27.06492,-0.91336996 38.44305,-0.99999996 L 73.985193,-1.3559323e-6 89.427893,15.666669 C 97.921383,24.283329 154.90963,83.833329 216.06846,148 c 61.15882,64.16667 149.60024,156.86919 196.53647,206.0056 84.65405,88.62231 152.41943,159.72692 179.33863,188.17585 l 14,14.79558 32.6666,-3.80012 c 142.9031,-16.62395 167.2198,-21.2836 208.0769,-39.87256 60.4201,-27.48958 74.9507,-32.2419 110.1504,-36.0255 21.9218,-2.35636 70.01014,-1.0068 90.59954,2.5426 33.3456,5.74842 68.428,16.20472 111.1732,33.13516 47.738,18.90794 75.7354,34.48508 92.996,51.74099 15.5453,15.54093 18.0521,25.08552 11.6206,44.2446 -11.1771,33.29616 -50.1618,65.11048 -83.9499,68.50929 -14.4916,1.45774 -97.0252,4.69738 -200.00004,7.85046 -123.8468,3.7922 -128.1621,3.92137 -202.6667,6.06677 -82.6174,2.37903 -136.0878,4.38087 -146.2643,5.47591 l -7.5977,0.81754 -77.069,80.81685 c -42.3879,44.4493 -158.89978,166.6253 -258.91521,271.50228 -100.01543,104.877 -188.806047,197.7354 -197.312497,206.352 L 73.985193,1272 l -22.02085,-0.2703 c -12.11146,-0.1486 -29.40631,-0.5986 -38.433,-1 z M 761.77496,448.01941 c -5.0025,-2.02009 -8.9842,-9.20833 -9.5675,-17.27265 -0.5326,-7.363 -0.4753,-7.49721 6.5834,-15.42053 24.6206,-27.6363 56.4759,-50.29563 90.486,-64.36452 33.091,-13.68871 53.6508,-17.63394 92.208,-17.69383 39.806,-0.0619 59.60404,3.2864 91.16714,15.41819 32.6551,12.5515 52.414,24.99001 82.4262,51.88845 15.0733,13.50945 20.8654,21.18279 20.8654,27.64248 0,11.39256 -7.9672,21.11633 -17.3017,21.11633 -6.2521,0 -14.4914,-5.28622 -29.848,-19.15006 -30.5981,-27.62383 -56.7959,-42.3491 -91.57944,-51.47492 -21.623,-5.67306 -36.67,-7.19202 -62.3986,-6.29903 -30.6415,1.06351 -52.3789,6.25633 -80.1475,19.14635 -20.7123,9.61453 -32.4116,17.7799 -56.6879,39.56445 -8.0464,7.22047 -16.8725,14.27227 -19.6136,15.67067 -5.2322,2.6693 -11.8168,3.15688 -16.5919,1.22862 z m -84,-81.26206 c -3.8678,-1.65912 -7.916,-7.64383 -9.7318,-14.38748 -1.2263,-4.55378 -1.127,-6.52114 0.5288,-10.4841 5.5534,-13.29106 54.4958,-54.8635 90.0529,-76.49228 32.4068,-19.71253 79.7569,-36.70509 124.8471,-44.80401 23.8673,-4.28695 52.4798,-5.41264 85.1382,-3.34956 52.96234,3.34568 89.93714,13.31907 138.66674,37.40312 38.0984,18.82973 66.5779,39.08483 95.4882,67.91283 16.5654,16.51814 18.358,19.80093 16.4286,30.0854 -1.0441,5.56529 -9.0248,13.32476 -15.0705,14.65261 -5.9562,1.3082 -14.227,-3.66765 -30.1796,-18.15647 -31.3821,-28.50249 -54.9491,-44.95449 -86.6667,-60.50154 -30.5442,-14.97186 -59.3228,-23.98 -94.27064,-29.50807 -21.4443,-3.39208 -75.5038,-3.42953 -97.0627,-0.0672 -68.7903,10.72836 -125.4993,38.44972 -179.3334,87.66453 -7.3333,6.7041 -15.9613,14.01602 -19.1733,16.24874 -6.1837,4.29837 -14.6594,5.92934 -19.6619,3.78353 z m -79.9362,-83.95246 c -11.6144,-5.27497 -14.1548,-14.32636 -7.3505,-26.18901 5.1082,-8.90557 30.2167,-33.85755 50.1219,-49.80956 64.0262,-51.31039 140.7246,-85.82515 226,-101.70153 30.5341,-5.684771 128.9296,-4.71175 162.08704,1.60286 77.5426,14.76743 151.0819,47.62426 210.9245,94.23955 28.2652,22.01756 54.3398,47.48472 60.2638,58.85987 3.8301,7.35434 -3.5146,20.09277 -13.2703,23.01564 -9.6487,2.89082 -13.3033,1.05332 -30.7624,-15.46715 -21.3182,-20.17211 -34.8227,-31.51983 -52.8985,-44.45011 -64.1121,-45.86166 -142.1522,-75.15441 -217.66594,-81.70196 -23.8657,-2.06932 -85.023,-0.83678 -104.0115,2.09619 -48.4444,7.48276 -103.6959,25.49741 -144,46.95099 -36.4376,19.39545 -62.3511,38.42037 -104.613,76.80384 -14.0918,12.79854 -22.243,18.30792 -27.0006,18.24954 -1.3125,-0.0161 -4.8336,-1.14073 -7.8245,-2.49916 z"
     id="path3724"
     inkscape:connector-curvature="0" />
</svg>
