<?xml version="1.0" encoding="UTF-8" standalone="no"?>
<svg
   xmlns:dc="http://purl.org/dc/elements/1.1/"
   xmlns:cc="http://creativecommons.org/ns#"
   xmlns:rdf="http://www.w3.org/1999/02/22-rdf-syntax-ns#"
   xmlns:svg="http://www.w3.org/2000/svg"
   xmlns="http://www.w3.org/2000/svg"
   version="1.1"
   id="svg2"
   viewBox="0 0 703.86063 488.01004"
   height="137.72728mm"
   width="198.64511mm">
  <defs
     id="defs4" />
  <metadata
     id="metadata7">
    <rdf:RDF>
      <cc:Work
         rdf:about="">
        <dc:format>image/svg+xml</dc:format>
        <dc:type
           rdf:resource="http://purl.org/dc/dcmitype/StillImage" />
        <dc:title></dc:title>
      </cc:Work>
    </rdf:RDF>
  </metadata>
  <g
     transform="translate(-128.48772,-71.948109)"
     id="layer1">
    <path
       id="path3355"
       d="m 770.42787,557.52052 c 0,-1.46098 -0.70115,-2.64157 -1.75,-2.94664 -2.57148,-0.74794 -71.89415,-16.94882 -133.25,-31.14085 -29.425,-6.8062 -68.8,-15.96862 -87.5,-20.36093 -18.7,-4.39231 -57.625,-13.44811 -86.5,-20.12399 -28.875,-6.67587 -59.92485,-13.92126 -68.99966,-16.10084 -9.07482,-2.17959 -17.39982,-4.03323 -18.5,-4.11921 -1.10019,-0.086 -19.10034,9.74853 -40.00034,21.85446 -20.9,12.10592 -40.96824,23.66561 -44.5961,25.68818 l -6.5961,3.67741 -6.13705,0 -6.13706,0 -2.43916,4.81346 c -9.85236,19.44269 -38.32515,21.15064 -50.32429,3.01871 l -2.65105,-4.00601 -2.6087,0.52174 c -1.43478,0.28696 -5.78163,2.35107 -9.65965,4.58692 -3.87803,2.23585 -8.24343,4.06518 -9.7009,4.06518 l -2.64993,0 0,-2.34501 c 0,-2.72177 1.60824,-4.25738 8.5,-8.11613 2.75,-1.53975 6.48019,-4.19631 8.28931,-5.90347 l 3.28931,-3.10393 2.44649,-8.01573 c 4.43153,-14.51957 9.66755,-19.26328 34.97488,-31.68635 8.25,-4.04983 18.27005,-9.29245 22.26679,-11.65027 l 7.26679,-4.28694 5.36648,-7.19608 c 9.98978,-13.39562 12.84662,-20.81302 10.31611,-26.78443 -0.79517,-1.87641 -21.33625,-32.21166 -45.64684,-67.41166 -24.3106,-35.2 -59.77739,-86.56369 -78.8151,-114.14154 l -34.61401,-50.14154 -1.43618,1.43618 c -2.21941,2.21941 -3.67266,1.06942 -4.02668,-3.18639 -0.51404,-6.17955 0.66218,-10.31546 3.45384,-12.14463 l 2.53772,-1.66278 3.58644,1.29688 3.58644,1.29687 1.29312,-1.76845 c 0.71122,-0.97265 7.66802,-20.94208 15.45957,-44.37653 7.79154,-23.43444 14.78179,-43.317471 15.5339,-44.184521 1.89273,-2.18198 19.72544,-10.92355 22.28395,-10.92355 l 2.08767,0 0,2.78473 c 0,1.53161 -3.37363,20.09411 -7.49695,41.250001 -4.12332,21.1559 -7.49832,39.03962 -7.5,39.74159 -0.002,0.70198 17.85539,25.90198 39.68238,56 21.82699,30.09803 55.18582,76.09868 74.13075,102.22368 18.94492,26.125 37.4387,51.55 41.0973,56.5 3.6586,4.95 7.76226,10.68818 9.11925,12.75151 1.35699,2.06332 3.25371,4.00582 4.21494,4.31665 0.96122,0.31083 2.02283,1.66147 2.35914,3.00144 0.8767,3.49304 5.65866,7.13051 10.43489,7.93745 l 4.11112,0.69457 29.17359,-16.79982 c 43.90808,-25.28478 47.8276,-27.11064 70.57663,-32.87722 5.32848,-1.3507 11.35512,-3.15233 13.39254,-4.00362 l 3.70441,-1.5478 -0.003,-3.23658 c -0.002,-1.78012 -0.90166,-7.86504 -2,-13.52204 -1.09836,-5.657 -1.997,-12.98362 -1.997,-16.28138 l 0,-5.99593 1.57754,-0.60536 c 2.88449,-1.10688 4.12435,2.04586 6.35835,16.16813 1.21806,7.7 2.62531,15.60276 3.12722,17.56168 l 0.91256,3.56168 8.76216,-0.0617 c 16.7607,-0.11798 18.84505,3.45138 10.16727,17.411 -1.59543,2.56652 -2.42896,4.91051 -1.9558,5.5 3.13205,3.90217 2.06948,15.50172 -1.74394,19.03772 l -2.54357,2.35853 0.22902,6.3171 c 0.20056,5.53239 -0.26099,9.07667 -2.41748,18.56397 -1.28921,5.67176 -5.50851,2.33759 -7.90922,-6.25 -0.92254,-3.3 -1.90606,-6.78396 -2.18561,-7.74213 l -0.50828,-1.74212 -2.68511,1.38878 c -1.47681,0.76383 -4.13881,3.19795 -5.91555,5.40915 -4.49917,5.59933 -12.07882,11.61193 -14.78782,11.73052 -1.24817,0.0546 -3.7017,1.30454 -5.45229,2.77757 -3.5601,2.99562 -7.52125,3.44812 -10.06134,1.14937 l -1.68938,-1.52887 -12.5752,7.27887 c -6.91636,4.00337 -12.26657,7.55879 -11.88936,7.90092 0.79675,0.72268 22.84088,5.90065 278.18583,65.34342 32.175,7.49015 63.21931,14.74163 68.98736,16.1144 5.76805,1.37277 10.63555,2.14138 10.81666,1.70803 0.18111,-0.43333 5.13679,-14.96289 11.01263,-32.28789 l 10.68335,-31.5 10.29052,-5.25 c 17.55258,-8.95495 17.04242,-11.30487 7.76132,35.75106 -8.46508,42.91869 -8.28842,41.57306 -5.55184,42.28869 4.75877,1.24445 1.91744,4.21266 -13.9564,14.57964 l -15.87753,10.36939 2.5451,2.1892 2.5451,2.18921 -0.69586,2.19247 c -1.02372,3.22545 -2.98142,3.84907 -14.31041,4.55851 l -10.25,0.64187 0,-2.43763 z m 7,-9.07241 c 1.29175,-1.375 1.82019,-2.5 1.17431,-2.5 -1.74035,0 -1.42932,-3.9457 0.82828,-10.50753 2.44705,-7.11247 8.73455,-4.6331 -41.50259,-16.36582 -23.65,-5.52338 -53.125,-12.51234 -65.5,-15.53102 -12.375,-3.01868 -39.11131,-9.35668 -59.41403,-14.08443 -39.39946,-9.17468 -38.58597,-8.94355 -38.58597,-10.96323 0,-1.66644 2.211,-2.54797 6.39066,-2.54797 1.77489,0 4.02138,-0.58081 4.9922,-1.29069 l 1.76512,-1.29068 -26.82399,-6.30644 c -14.75319,-3.46855 -51.71223,-12.0783 -82.13119,-19.13279 l -55.30719,-12.82635 -8.26411,2.39585 c -15.99023,4.63573 -38.56904,15.32113 -41.1299,19.46469 -0.27761,0.44918 3.43572,1.73528 8.25183,2.85799 4.81611,1.12272 33.05657,7.71167 62.75657,14.64212 29.7,6.93045 85.725,19.97207 124.5,28.98137 81.9619,19.04369 142.23324,33.10256 177.5,41.40357 29.60443,6.96823 27.5634,6.72723 30.5,3.60136 z m 10.87351,-10.02422 c 4.27988,-2.44661 17.12649,-12.24391 17.12649,-13.0613 0,-0.22732 3.33049,-15.37607 7.40108,-33.6639 4.07059,-18.28782 7.71312,-34.74392 8.09451,-36.56912 l 0.69343,-3.31854 -4.05467,2.06854 c -2.23007,1.1377 -4.6351,2.07346 -5.34451,2.07948 -0.80499,0.007 -6.55248,15.62848 -15.28984,41.5577 -7.7,22.85071 -14.15,41.97079 -14.33333,42.48906 -0.5382,1.52144 1.04654,1.08215 5.70684,-1.58192 z M 255.23325,526.58298 c 2.25486,-1.56261 4.73275,-3.80721 5.50643,-4.988 l 1.40668,-2.14687 -10.60924,-0.0206 c -5.83509,-0.0114 -14.99675,-0.41528 -20.35925,-0.8976 -11.32333,-1.01846 -11.79741,-0.55393 -5.28494,5.17858 5.68145,5.00101 9.31034,6.18658 18.13776,5.92563 l 7.10281,-0.20996 4.09975,-2.84113 z m 528.96875,-5.68248 0.29457,-1.54762 -31.53113,-7.36437 -31.53113,-7.36436 -2.75322,1.3032 -2.75322,1.30321 12.5,2.96289 c 6.875,1.62958 21.275,5.12474 32,7.76701 20.63205,5.08301 23.30337,5.41336 23.77413,2.94004 z m -524.27413,-6.07395 c 2.2,-0.61073 5.47816,-2.40822 7.2848,-3.99443 3.40091,-2.98596 8.70199,-3.92364 9.45254,-1.67199 l 0.404,1.21201 4.0869,-1.22446 c 2.2478,-0.67346 5.4785,-2.52441 7.17933,-4.11323 3.22439,-3.01202 4.12181,-5.41858 1.66975,-4.47764 -1.80757,0.69363 -5.57732,-3.01284 -5.57732,-5.4837 0,-1.03125 -0.27188,-3.23437 -0.60417,-4.89583 l -0.60416,-3.02084 2.10416,-2.10416 2.10417,-2.10417 -1.52144,0 c -0.83679,0 -2.02795,-1.11167 -2.64702,-2.47039 l -1.12558,-2.47038 1.27959,-1.54181 1.27959,-1.54182 -4.5511,-4.42325 c -2.63569,-2.56165 -6.29821,-4.9467 -8.70234,-5.66699 l -4.15125,-1.24375 -6.18023,3.11917 -6.18022,3.11916 2.85,0.06 c 1.85511,0.0391 4.03689,1.24692 6.25,3.46003 l 3.4,3.4 0,5.14966 c 0,19.14466 -30.84205,29.82077 -45.7336,15.83088 -2.70735,-2.54342 -2.63162,-2.60921 -4.51836,3.9253 l -1.50312,5.20583 1.87754,1.69915 c 1.03265,0.93457 1.87754,2.30444 1.87754,3.0442 0,0.92733 1.47507,1.36842 4.75,1.42039 2.6125,0.0415 8.575,0.65737 13.25,1.3687 11.04658,1.6808 17.55721,1.80649 22.5,0.43436 z m 451.5518,-10.25817 3.28142,-1.37974 -1.91661,-0.57393 c -2.34973,-0.70363 -42.06645,-9.97827 -84.55679,-19.74567 l -31.64017,-7.27324 -3.35983,0.98947 -3.35982,0.98947 23.5,5.70575 c 12.925,3.13816 39.475,9.47734 59,14.08707 19.525,4.60973 35.56084,8.42616 35.63519,8.48094 0.0743,0.0548 1.61183,-0.52127 3.41661,-1.28012 z M 247.92616,498.9487 c 7.6972,-2.64823 12.31325,-6.32031 14.68496,-11.68194 l 1.94557,-4.39829 -1.1445,-3.46786 c -1.52108,-4.60892 -4.00658,-5.74775 -11.50273,-5.27043 l -6.24686,0.39777 -7.51697,3.71509 c -11.17915,5.52503 -16.25828,11.24817 -14.36381,16.18506 l 0.56964,1.48446 4.44748,-4.70717 4.44748,-4.70717 2.84073,0.99507 c 1.70463,0.59711 2.96194,1.83665 3.14382,3.09939 l 0.30309,2.10431 -4.21059,3.09651 c -2.76348,2.03228 -3.72686,3.2511 -2.8031,3.54633 0.77413,0.2474 2.0825,0.67495 2.9075,0.9501 3.04292,1.01488 6.83199,0.60826 12.49829,-1.34123 z m -5.17192,-15.59248 c -1.29731,-3.38073 4.06274,-6.32046 7.2325,-3.96668 l 1.94113,1.44143 -1.10085,1.80857 c -0.60547,0.99471 -2.52106,1.94981 -4.25687,2.12244 l -3.15603,0.31387 -0.65988,-1.71963 z m 79.67363,2.57899 c 17.80047,-10.25868 21.92105,-12.97106 23.12614,-15.22279 l 1.06337,-1.98693 -5.85124,3.36131 c -3.21818,1.84872 -12.93581,7.39971 -21.59475,12.33554 l -15.74352,8.97423 0,1.85733 0,1.85733 3.25,-1.98604 c 1.7875,-1.09231 8.875,-5.2278 15.75,-9.18998 z m -3.81883,-6.73426 c 6.42465,-3.69811 11.59904,-6.80596 11.49866,-6.90635 -0.10039,-0.10038 -2.64248,0.45559 -5.6491,1.2355 -18.68466,4.84673 -28.60206,-2.79 -18.70862,-14.40627 1.72181,-2.02165 2.20578,-2.88822 1.07549,-1.92572 -4.01774,3.4213 -16.7342,1.5007 -19.24286,-2.9063 l -1.04952,-1.8437 -6.55127,3.5 c -7.04857,3.76568 -7.66333,4.51312 -4.52993,5.50762 1.11321,0.35332 4.66086,3.08365 7.88366,6.06739 3.29171,3.04755 6.79649,5.42499 7.99742,5.42499 1.30304,0 2.57728,0.96461 3.26336,2.47039 l 1.12558,2.47038 -1.19947,1.44528 -1.19947,1.44528 1.63376,5.61993 1.63376,5.61994 5.16869,-3.04727 c 2.84278,-1.676 10.42522,-6.07299 16.84986,-9.77109 z m 7.46349,-10.3655 c 8.71632,-2.68618 14.35534,-5.54828 14.35534,-7.2861 0,-1.56408 11.6817,-3.60124 20.65064,-3.60124 l 5.56894,0 5.34038,-4.8808 c 7.26032,-6.63553 19.52327,-12.6267 40.44004,-19.75733 1.00697,-0.34328 0.35937,-0.9944 -1.97025,-1.98095 -5.21834,-2.20987 -7.02975,-4.28546 -7.02975,-8.05496 l 0,-3.36406 -2.25,0.46967 c -1.2375,0.25832 -6.29689,1.03062 -11.24309,1.71623 l -8.9931,1.24656 -8.09523,7.55282 -8.09523,7.55282 -16.86199,5.39363 -16.86199,5.39362 -2.97997,-1.12481 -2.97996,-1.12481 -3.56972,2.63025 c -21.79601,16.05975 -19.29298,26.57503 4.57494,19.21946 z m 35.10251,-6.72543 c -2.20119,-0.36658 -9.74717,2.65902 -9.74717,3.90818 0,0.42148 -0.26967,1.46909 -0.59927,2.328 -0.39141,1.02 1.65106,0.26796 5.88863,-2.16821 l 6.48789,-3.72988 -2.03008,-0.33809 z m -44.13159,-13.83042 5.11558,-3.97703 -3.11558,-2.06407 c -4.67875,-3.09966 -5.78873,-3.2189 -9.74769,-1.04711 l -3.63212,1.99249 1.88212,1.88212 c 1.15005,1.15005 1.88211,3.29107 1.88211,5.50455 l 0,3.62245 1.25,-0.96818 c 0.6875,-0.5325 3.55201,-2.75785 6.36558,-4.94522 z m -14.73746,0.765 c 2.29679,-1.45477 0.24067,-3.09649 -3.87812,-3.09649 -4.11879,0 -6.17491,1.64172 -3.87812,3.09649 0.75797,0.48009 2.50312,0.87288 3.87812,0.87288 1.375,0 3.12015,-0.39279 3.87812,-0.87288 z m 0.87188,-10.1526 4.25,-1.9179 0,-2.40414 0,-2.40413 8.58666,-8.128 c 10.63758,-10.06935 11.43039,-10.47537 25.61704,-13.11924 l 11.53567,-2.14982 4.26307,-2.82228 4.26308,-2.82227 -4.19816,-2.14175 c -2.30899,-1.17796 -5.0864,-3.64719 -6.17202,-5.48718 l -1.97386,-3.34544 -4.9741,1.31214 c -15.12979,3.99117 -35.65796,13.22067 -42.88706,19.2821 l -3.43968,2.88409 0.26225,5.66157 0.26226,5.66156 -2.54025,5.54863 c -1.39713,3.05174 -3.43744,6.80863 -4.53402,8.34863 l -1.99377,2.8 4.71144,-1.41934 c 2.5913,-0.78063 6.62395,-2.28238 8.96145,-3.33723 z m 52.25,-1.92455 7.5,-2.19611 4.22903,-4.09925 c 2.32597,-2.25458 4.09741,-4.23087 3.93654,-4.39175 -0.61946,-0.61945 -15.6126,4.48642 -22.51067,7.66594 l -7.24018,3.33721 0.55989,1.45906 c 0.30794,0.80248 0.0667,2.05329 -0.53603,2.77957 -0.67968,0.81896 0.35826,0.62183 2.73274,-0.51902 2.10578,-1.01175 7.20368,-2.82779 11.32868,-4.03565 z m -13.5,-4.07004 c 8.06041,-4.2894 17.76741,-7.80446 30.25,-10.95404 5.33524,-1.34617 5.30624,-1.89555 -0.3635,-6.88625 -7.41223,-6.5245 -11.89581,-6.36673 -21.3865,0.75257 -6.21482,4.66196 -22.3438,15.07323 -27.6769,17.86547 l -5.18632,2.71539 4.15103,2.7481 4.15103,2.74809 3.53058,-2.09996 c 1.94182,-1.15498 7.58058,-4.2552 12.53058,-6.88937 z m 82.18618,-5.89953 c 1.7524,-1.06851 3.68073,-2.86683 4.28518,-3.99626 l 1.09901,-2.05351 -1.47617,0 c -0.81189,0 -1.72918,-0.40939 -2.03843,-0.90976 -0.98861,-1.5996 0.59248,-4.09024 2.59653,-4.09024 l 1.93833,0 -0.68726,-3.75 c -1.88251,-10.27195 -11.08786,-23.00023 -19.31845,-26.71171 l -3.91013,-1.76322 -2.8374,1.03352 -2.83739,1.03352 4.28138,0.0789 c 4.72715,0.0872 5.852,1.41921 4.7858,5.66731 -1.46763,5.8475 -8.88093,9.39697 -13.50962,6.46838 -0.97127,-0.61453 -1.79651,-0.42843 -2.52638,0.56973 -1.39652,1.90986 -4.53118,0.76138 -4.53118,-1.66013 0,-1.00083 0.66315,-1.96519 1.47367,-2.14302 0.96566,-0.21186 1.18233,-0.78905 0.62855,-1.67434 l -0.84512,-1.35102 -8.19989,4.72968 c -7.26323,4.18947 -10.94893,9.16074 -4.05721,5.4724 2.77277,-1.48394 3.61602,-0.5963 4.47904,4.71486 l 0.68488,4.21485 -2.97749,1.81072 -2.97749,1.81072 1.4615,2.78939 1.46151,2.78939 2.68403,-0.58631 c 18.91656,-4.13218 30.11129,-3.4357 25.56274,1.59039 -4.54547,5.02269 8.5023,10.06516 15.30746,5.91576 z m -97.37044,-0.18758 c 3.54087,-1.84448 18.68426,-12.00304 18.68426,-12.53385 0,-0.49947 -2.89838,-0.0307 -11.25379,1.81999 l -4.7538,1.05297 -5.14708,4.62767 -5.14707,4.62766 2.40087,0.67201 c 1.32048,0.3696 2.54295,0.71686 2.71661,0.77168 0.17366,0.0548 1.29866,-0.41233 2.5,-1.03813 z m 117.72682,-15.02025 c 1.05904,-3.93297 0.77752,-7.22322 -1.1529,-13.47471 l -0.96739,-3.13278 -3.03829,-0.60765 -3.0383,-0.60766 0.28526,-3.95088 0.28527,-3.95088 -1.95811,-2.20509 c -6.95217,-7.82909 -13.93739,-9.7075 -20.67991,-5.56109 l -3.7218,2.28878 3.92602,1.73216 c 5.17311,2.28237 12.20363,10.22904 16.16027,18.26612 l 3.18432,6.46827 0.0865,7.274 0.0865,7.274 4.73148,-2.90165 4.73149,-2.90164 1.07959,-4.0093 z m 6.95744,-6.25305 0,-6.4111 2.96305,-2.49325 c 1.62968,-1.37128 3.466,-2.66089 4.0807,-2.86579 5.59829,-1.8661 -11.70264,-24.26471 -20.38067,-26.3858 l -2.83693,-0.6934 -4.9715,2.32853 -4.97151,2.32853 3.66153,1.87848 c 2.01384,1.03316 5.65197,3.86892 8.08474,6.30169 2.43277,2.43277 5.24164,4.42322 6.24192,4.42322 1.00028,0 2.63484,0.90183 3.63235,2.00406 l 1.81365,2.00406 -1.17223,2.57278 -1.17224,2.57277 1.51357,4.45811 c 0.83246,2.45196 1.51357,6.69239 1.51357,9.42317 0,2.73078 0.45,4.96505 1,4.96505 0.56268,0 1,-2.8037 1,-6.41111 z m -152.31654,3.02401 c 6.31815,-5.31637 35.63249,-18.43849 44.16861,-19.77141 l 2.18695,-0.34149 -4.26951,-6.16198 C 338.84915,378.89705 322.8351,356.7503 305.6106,333.07115 l -31.31727,-43.05301 -4.18273,1.61714 c -2.3005,0.88943 -5.15119,2.48574 -6.33487,3.54736 -1.18367,1.06162 -3.17608,1.78065 -4.42757,1.59785 l -2.27545,-0.33238 -23.3862,-32.5 c -30.48706,-42.36813 -64.81713,-90.029 -66.46345,-92.27206 l -1.30062,-1.77207 -8.93574,4.598 -8.93573,4.598 -3.21724,-0.60355 -3.21724,-0.60356 -2.08987,2.65684 -2.08988,2.65684 4.32788,6.12078 c 2.38034,3.36643 13.33396,19.17078 24.34139,35.12078 11.00743,15.95 34.77166,50.375 52.80941,76.5 18.03775,26.125 42.49156,61.5625 54.34181,78.75 11.85024,17.1875 21.87694,31.25 22.28154,31.25 0.40461,0 2.01226,-1.0742 3.57256,-2.3871 z m 170.73485,-5.71825 c 6.01873,-0.97467 8.74672,-8.12962 4.65838,-12.21796 -1.47129,-1.47129 -9.07669,3.83892 -9.07669,6.3375 0,1.15726 -0.67049,1.98581 -1.60699,1.98581 -1.05692,0 -1.39848,0.54337 -0.99784,1.58742 0.33504,0.87308 0.93078,3.46058 1.32389,5.75 l 0.71473,4.16258 0.53311,-3.48541 0.5331,-3.48542 3.91831,-0.63452 z m 32.50757,-10.64465 c 0.0839,-2.54575 -0.78237,-2.81382 -3.23133,-1 l -1.68771,1.25 1.0511,4 c 1.79933,6.84744 2.23537,7.20696 3.03211,2.5 0.41894,-2.475 0.79506,-5.5125 0.83583,-6.75 z m -18.51027,-3.89068 c 0.90265,-2.35228 -1.10299,-5.10182 -3.62867,-4.97456 -2.30361,0.11608 -2.77215,1.64698 -1.42449,4.6544 0.90579,2.02135 4.31741,2.23751 5.05316,0.32016 z m 22.81041,-9.85932 c 0.80198,-1.07887 1.07825,-10.5 0.30791,-10.5 -0.25634,0 -2.08363,0.77136 -4.06064,1.71413 l -3.59456,1.71412 0.54698,2.03588 c 0.30084,1.11973 0.55313,4.02681 0.56064,6.46018 l 0.0136,4.42432 2.74133,-2.42432 c 1.50774,-1.33337 3.07584,-2.87431 3.48469,-3.42431 z m -19.20307,-16.63305 c 5.39151,-3.0302 4.54781,-6.0023 -2.77594,-9.77877 l -2.253,-1.16175 -8.747,2.05791 c -26.08268,6.13649 -32.73852,9.7405 -26.26048,14.21954 2.15084,1.48714 5.62126,4.93677 7.71205,7.66585 5.38074,7.02343 6.2021,6.9067 18.07437,-2.56864 5.65012,-4.5094 12.06262,-9.20477 14.25,-10.43414 z m 19.69107,-3.23052 c 1.02256,-1.29996 2.70529,-4.23989 3.73942,-6.53317 l 1.88022,-4.1696 -1.06516,-1.06516 c -3.56581,-3.56581 -18.3998,-0.846 -16.02511,2.9382 0.92957,1.48131 2.69476,4.6058 3.92264,6.9433 2.53867,4.83285 4.78812,5.39504 7.54799,1.88643 z M 268.94394,287.942 c 1.68879,-0.64208 2.34338,-1.43022 1.86212,-2.24202 -3.86591,-6.52099 -49.8669,-68.75187 -50.8213,-68.75187 -10.59048,0 -10.82652,-0.52623 17.44311,38.88869 l 24.5,34.15911 2.2059,-0.53188 c 1.21324,-0.29254 3.37782,-0.97745 4.81017,-1.52203 z m -54.17129,-73.49348 3.58902,-1.49959 -13.2695,-18.25041 c -7.29822,-10.03773 -15.6312,-21.49472 -18.51773,-25.45999 l -5.24823,-7.20958 -3.69917,1.67992 c -2.03454,0.92396 -3.83871,1.75782 -4.00926,1.85302 -0.27725,0.15475 22.10443,31.72458 31.99968,45.13622 4.33508,5.8756 4.20067,5.82054 9.15519,3.75041 z m -50.34656,-51.47896 c 4.62159,-3.61617 6.99097,-6.16573 6.96998,-7.5 l -0.0318,-2.02145 -1.38302,1.82464 c -0.90626,1.19565 -2.36036,1.71273 -4.21819,1.5 l -2.83518,-0.32464 -0.32014,-2.25447 c -0.38884,-2.73833 1.5846,-3.66578 5.02049,-2.35946 l 2.54524,0.9677 1.25474,-2.67688 c 0.69011,-1.47229 4.47023,-17.16671 8.40027,-34.8765 l 7.14552,-32.199611 -1.52306,1.34585 c -0.83768,0.74022 -3.27477,2.18005 -5.41575,3.19961 l -3.89269,1.85376 -5.7225,16.500001 c -3.14737,9.075 -6.05873,17.625 -6.4697,19 l -0.74721,2.5 1.31239,-1.25 c 1.97798,-1.88394 8.83874,-1.60553 9.60439,0.38974 0.75399,1.96486 -4.40339,18.36026 -5.77545,18.36026 -0.52768,0 -1.48139,1.1456 -2.11935,2.54578 -1.41628,3.10839 -5.29719,3.07485 -5.29719,-0.0458 0,-1.1 -0.43732,-2.31325 -0.97182,-2.69611 -0.61723,-0.44212 -0.48548,-2.4489 0.36108,-5.5 4.0317,-14.53059 2.30716,-10.35882 -5.99947,14.51314 l -6.7854,20.31704 4.94602,-2.81704 c 2.72032,-1.54937 8.09683,-5.28238 11.94781,-8.29558 z m 1.60617,-22.77145 c 0.29789,-0.9625 0.90154,-2.43977 1.34146,-3.28282 1.43146,-2.74326 2.2543,-7.96718 1.25493,-7.96718 -1.11751,0 -3.02868,4.30308 -4.18164,9.41515 -0.81801,3.62695 0.54304,5.20231 1.58525,1.83485 z"
       style="fill:#000000" />
  </g>
</svg>
